<svg xmlns="http://www.w3.org/2000/svg" width="1875" height="506" viewBox="0 0 1875 506" version="1.1"><path d="M 464 270 L 464 398 497.500 398 L 531 398 531 299 L 531 200 569.134 200 C 596.438 200, 608.435 200.350, 611.377 201.231 C 613.758 201.944, 617.445 204.363, 620.143 206.981 C 623.066 209.817, 625.222 212.990, 625.932 215.500 C 626.696 218.201, 627.366 246.461, 627.995 302.500 C 628.508 348.150, 628.943 388.313, 628.963 391.750 L 629 398 664 398 L 699 398 698.978 310.750 L 698.957 223.500 697.034 214.806 C 695.977 210.024, 693.793 202.824, 692.182 198.806 C 690.571 194.788, 687.795 189.025, 686.013 186 C 684.231 182.975, 680.570 177.780, 677.878 174.455 C 675.185 171.129, 670.873 166.646, 668.295 164.490 C 665.716 162.335, 660.146 158.492, 655.916 155.950 C 651.686 153.407, 643.974 149.918, 638.778 148.195 C 633.582 146.472, 625.094 144.375, 619.915 143.535 C 612.088 142.266, 598.144 142.007, 537.250 142.004 L 464 142 464 270 M 1321 168.671 L 1321 194 1387.951 194 C 1432.965 194, 1456.638 194.362, 1460.201 195.105 C 1463.115 195.713, 1468.270 197.515, 1471.655 199.111 C 1475.715 201.024, 1479.541 203.906, 1482.898 207.579 C 1486.863 211.917, 1488.415 214.622, 1489.925 219.824 C 1490.991 223.496, 1492.149 230.194, 1492.497 234.709 L 1493.130 242.918 1427.815 243.212 L 1362.500 243.505 1354 246.370 C 1349.325 247.946, 1343.022 250.483, 1339.993 252.009 C 1336.965 253.535, 1331.737 256.850, 1328.377 259.376 C 1325.017 261.902, 1320.457 266.338, 1318.244 269.234 C 1316.031 272.130, 1312.814 277.312, 1311.096 280.750 C 1309.377 284.187, 1307.282 289.971, 1306.440 293.601 C 1305.222 298.853, 1304.970 305.652, 1305.205 326.851 L 1305.500 353.500 1308.915 360.307 C 1310.794 364.050, 1315.211 370.224, 1318.731 374.027 C 1322.315 377.898, 1328.444 383.005, 1332.660 385.632 C 1336.800 388.213, 1344.533 391.822, 1349.844 393.653 L 1359.500 396.982 1456.500 396.980 C 1509.850 396.979, 1555.203 396.697, 1557.285 396.353 L 1561.070 395.727 1560.740 304.614 L 1560.410 213.500 1558.688 207.129 C 1557.741 203.625, 1555.782 197.797, 1554.335 194.179 C 1552.887 190.560, 1550.125 184.877, 1548.197 181.550 C 1546.268 178.222, 1541.048 171.881, 1536.595 167.458 C 1529.804 160.711, 1526.808 158.587, 1518 154.276 C 1512.225 151.450, 1503.675 148.160, 1499 146.964 C 1492.152 145.214, 1486.808 144.716, 1471.500 144.403 C 1461.050 144.189, 1422.912 143.863, 1386.750 143.678 L 1321 143.342 1321 168.671 M 760 169 L 760 194 823.428 194 C 863.177 194, 889.739 194.401, 894.579 195.074 C 898.827 195.665, 904.536 197.029, 907.265 198.105 C 909.995 199.180, 914.227 201.436, 916.671 203.117 C 919.114 204.799, 922.424 207.982, 924.024 210.192 C 925.625 212.402, 927.857 216.675, 928.984 219.687 C 930.137 222.769, 931.309 229.044, 931.663 234.034 L 932.293 242.903 868.896 243.234 L 805.500 243.566 797.921 245.698 C 793.752 246.871, 787.476 249.037, 783.973 250.512 C 780.469 251.986, 775.105 254.790, 772.052 256.743 C 768.998 258.696, 763.905 262.986, 760.734 266.278 C 757.023 270.128, 753.550 275.157, 750.993 280.381 C 748.808 284.846, 746.340 291.182, 745.510 294.460 C 744.355 299.021, 744.006 306.418, 744.024 325.960 L 744.047 351.500 746.381 357.172 C 747.664 360.292, 750.815 365.790, 753.384 369.389 C 755.952 372.989, 760.562 377.977, 763.628 380.474 C 766.693 382.972, 771.969 386.560, 775.351 388.448 C 778.733 390.336, 785.550 393.206, 790.500 394.826 L 799.500 397.772 899.784 397.251 L 1000.069 396.729 999.777 304.614 L 999.485 212.500 996.688 203.549 C 995.151 198.626, 992.123 191.201, 989.959 187.049 C 987.796 182.897, 983.999 177.025, 981.521 174 C 979.044 170.975, 974.425 166.334, 971.258 163.686 C 968.091 161.039, 961.450 156.902, 956.500 154.493 C 951.550 152.083, 943.675 149.145, 939 147.962 C 933.566 146.587, 924.909 145.499, 915 144.944 C 906.475 144.467, 868.112 144.059, 829.750 144.038 L 760 144 760 169 M 1145 145.490 C 1140.875 146.196, 1134.615 147.531, 1131.090 148.456 C 1127.564 149.381, 1121.748 151.241, 1118.166 152.590 C 1114.583 153.938, 1108.483 156.656, 1104.610 158.630 C 1100.736 160.604, 1094.852 164.048, 1091.534 166.284 C 1088.215 168.520, 1081.971 173.758, 1077.657 177.925 C 1073.343 182.091, 1067.234 189.349, 1064.082 194.054 C 1060.929 198.759, 1056.854 206.184, 1055.026 210.554 C 1053.198 214.924, 1050.706 222.100, 1049.488 226.500 C 1048.271 230.900, 1046.657 238.550, 1045.902 243.500 C 1045.030 249.214, 1044.523 261.263, 1044.514 276.500 L 1044.500 300.500 1046.807 308.779 C 1048.076 313.333, 1050.486 320.308, 1052.164 324.279 C 1053.841 328.251, 1057.303 335.033, 1059.857 339.350 C 1062.411 343.668, 1067.360 350.775, 1070.856 355.144 C 1074.352 359.514, 1080.406 365.838, 1084.311 369.198 C 1088.215 372.559, 1094.130 377.069, 1097.455 379.222 C 1100.780 381.374, 1106.742 384.676, 1110.704 386.559 C 1114.666 388.442, 1121.400 391.155, 1125.668 392.588 C 1129.937 394.021, 1137.720 396.066, 1142.964 397.132 C 1149.332 398.427, 1158.812 399.269, 1171.500 399.669 C 1181.950 399.998, 1208.388 399.930, 1230.250 399.517 L 1270 398.766 1270 371.383 L 1270 344 1220.750 343.993 L 1171.500 343.986 1163 341.953 C 1158.325 340.834, 1150.812 338.137, 1146.305 335.958 C 1141.389 333.581, 1135.752 329.813, 1132.216 326.540 C 1128.801 323.378, 1124.943 318.494, 1123.040 314.924 C 1121.234 311.535, 1119.142 306.454, 1118.390 303.632 C 1117.417 299.977, 1117.020 291.580, 1117.012 274.460 C 1117.003 256.100, 1117.362 249.012, 1118.532 244.460 C 1119.374 241.182, 1121.624 235.191, 1123.531 231.147 C 1126.039 225.829, 1128.868 221.946, 1133.750 217.120 C 1137.462 213.450, 1143.284 208.985, 1146.686 207.199 C 1150.088 205.412, 1156.348 203.062, 1160.596 201.975 L 1168.320 200 1218.660 200 L 1269 200 1269 172 L 1269 144 1210.750 144.103 C 1168.289 144.177, 1150.467 144.553, 1145 145.490 M 1620 325 L 1620 506 1654 506 L 1688 506 1688 451.592 L 1688 397.185 1734.250 396.715 C 1775.767 396.294, 1781.472 396.039, 1790 394.222 C 1795.225 393.109, 1802.375 391.228, 1805.889 390.042 C 1809.403 388.856, 1815.478 386.283, 1819.389 384.325 C 1823.300 382.368, 1829.509 378.547, 1833.186 375.836 C 1836.863 373.124, 1842.457 368.114, 1845.616 364.703 C 1848.776 361.291, 1853.391 355.362, 1855.873 351.527 C 1858.355 347.692, 1862.131 340.598, 1864.265 335.762 C 1866.399 330.926, 1869.556 321.689, 1871.281 315.235 L 1874.417 303.500 1874.459 273.500 L 1874.500 243.500 1872.159 233 C 1870.871 227.225, 1868.262 218.450, 1866.362 213.500 C 1864.461 208.550, 1861.117 201.479, 1858.930 197.787 C 1856.744 194.095, 1852.319 187.757, 1849.098 183.704 C 1845.877 179.650, 1839.474 173.319, 1834.871 169.633 C 1830.267 165.948, 1822.175 160.711, 1816.889 157.994 C 1811.603 155.278, 1803.278 151.721, 1798.389 150.091 C 1793.500 148.462, 1785.450 146.426, 1780.500 145.567 C 1772.881 144.246, 1759.873 144.006, 1695.750 144.003 L 1620 144 1620 325 M 1688.663 240.664 C 1688.298 263.029, 1688 295.204, 1688 312.164 L 1688 343 1712.750 342.916 C 1726.362 342.870, 1744.250 342.516, 1752.500 342.130 L 1767.500 341.429 1774.287 338.146 C 1778.166 336.270, 1783.826 332.288, 1787.498 328.853 C 1791.571 325.043, 1795.011 320.665, 1796.896 316.891 C 1798.532 313.617, 1800.412 308.365, 1801.074 305.219 C 1801.937 301.117, 1802.109 291.526, 1801.679 271.301 C 1801.230 250.121, 1800.677 241.533, 1799.456 236.801 C 1798.563 233.335, 1796.429 227.861, 1794.716 224.636 C 1793.002 221.410, 1789.722 216.840, 1787.428 214.479 C 1785.133 212.118, 1781.286 208.940, 1778.878 207.415 C 1776.470 205.891, 1771.575 203.609, 1768 202.343 L 1761.500 200.042 1725.413 200.021 L 1689.325 200 1688.663 240.664 M 1389.456 294.047 C 1387.232 294.591, 1383.731 296.422, 1381.677 298.115 C 1379.623 299.808, 1376.955 303.062, 1375.749 305.347 L 1373.556 309.500 1373.810 322.861 C 1373.992 332.433, 1374.494 337.055, 1375.581 339.156 C 1376.415 340.769, 1378.530 342.960, 1380.281 344.024 C 1382.031 345.089, 1385.722 346.421, 1388.482 346.984 C 1391.396 347.579, 1414.153 348.111, 1442.750 348.254 L 1492.001 348.500 1492 321.250 L 1492 294 1468.750 293.998 C 1455.963 293.997, 1433.800 293.785, 1419.500 293.527 C 1404.009 293.247, 1391.865 293.457, 1389.456 294.047 M 826.625 295.469 C 824.493 296.229, 821.236 298.317, 819.387 300.109 C 817.538 301.902, 815.308 305.245, 814.432 307.538 C 813.186 310.800, 812.912 314.663, 813.170 325.277 L 813.500 338.845 816 341.558 C 817.375 343.051, 820.525 345.223, 823 346.386 L 827.500 348.500 879.250 348.792 L 931 349.084 931 321.542 L 931 294 880.750 294.044 C 840.626 294.079, 829.719 294.366, 826.625 295.469" stroke="none" fill="#040404" fill-rule="evenodd"/><path d="M 0.636 4.640 C 0.286 7.191, 0 96.741, 0 203.640 L 0 398 134.500 398 L 269 398 269 271 L 269 144 299.500 144 L 330 144 330 271 L 330 398 364 398 L 398 398 398 199 L 398 0 199.636 -0 L 1.272 -0 0.636 4.640" stroke="none" fill="#e41c1c" fill-rule="evenodd"/></svg>